<?xml version="1.0" encoding="UTF-8" standalone="no"?>
<svg
   xmlns:dc="http://purl.org/dc/elements/1.1/"
   xmlns:cc="http://creativecommons.org/ns#"
   xmlns:rdf="http://www.w3.org/1999/02/22-rdf-syntax-ns#"
   xmlns:svg="http://www.w3.org/2000/svg"
   xmlns="http://www.w3.org/2000/svg"
   id="svg2990"
   version="1.1"
   viewBox="0 0 11.648978 5.5786591"
   height="5.5786591mm"
   width="11.648978mm">
  <defs
     id="defs2984" />
  <metadata
     id="metadata2987">
    <rdf:RDF>
      <cc:Work
         rdf:about="">
        <dc:format>image/svg+xml</dc:format>
        <dc:type
           rdf:resource="http://purl.org/dc/dcmitype/StillImage" />
        <dc:title></dc:title>
      </cc:Work>
    </rdf:RDF>
  </metadata>
  <g
     transform="translate(-140.83027,-109.84757)"
     id="layer1">
    <g
       transform="matrix(0.89199175,0,0,0.89199175,58.597416,-11.949947)"
       id="g1148-5-0-6-9"
       style="fill:#ffffff;fill-opacity:1">
      <path
         id="path1254-8-4-2-5-7-9-5-3-2"
         style="color:#000000;font-style:normal;font-variant:normal;font-weight:normal;font-stretch:normal;font-size:medium;line-height:1.25;font-family:Metrophobic;-inkscape-font-specification:Metrophobic;font-variant-ligatures:normal;font-variant-position:normal;font-variant-caps:normal;font-variant-numeric:normal;font-variant-alternates:normal;font-variant-east-asian:normal;font-feature-settings:normal;font-variation-settings:normal;text-indent:0;text-align:start;text-decoration:none;text-decoration-line:none;text-decoration-style:solid;text-decoration-color:#000000;letter-spacing:0px;word-spacing:0px;text-transform:none;writing-mode:lr-tb;direction:ltr;text-orientation:mixed;dominant-baseline:auto;baseline-shift:baseline;text-anchor:start;white-space:normal;shape-padding:0;shape-margin:0;inline-size:0;clip-rule:nonzero;display:inline;overflow:visible;visibility:visible;isolation:auto;mix-blend-mode:normal;color-interpolation:sRGB;color-interpolation-filters:linearRGB;solid-color:#000000;solid-opacity:1;vector-effect:none;fill:#ffffff;fill-opacity:0.496124;fill-rule:nonzero;stroke:none;stroke-width:0.797154;stroke-linecap:butt;stroke-linejoin:miter;stroke-miterlimit:4;stroke-dasharray:none;stroke-dashoffset:0;stroke-opacity:1;color-rendering:auto;image-rendering:auto;shape-rendering:auto;text-rendering:auto;enable-background:accumulate;stop-color:#000000"
         d="m 102.576,142.70257 c -0.25878,-0.0232 -0.30075,0.0928 -0.68192,0.0862 -0.4915,-0.008 -1.14408,-0.071 -1.59654,-0.30403 -0.452459,-0.23299 -0.890209,-0.7098 -1.678724,-1.61815 -0.15985,-0.63526 -0.617833,-0.91357 -0.970132,-1.31617 -0.889639,-1.41133 -1.827868,-1.86131 -2.45752,-1.91794 -0.456086,-0.3985 -0.742171,-0.33428 -0.281644,-0.88574 0.297752,0.0267 -0.02891,-0.2069 0.331962,-0.19364 0.397791,0.0146 1.184071,-0.0404 1.769453,0.2722 0.585382,0.31257 1.022822,0.71016 1.811338,1.6185 0.218741,0.55579 0.531126,0.9245 0.969555,1.31611 0.889632,1.41134 1.828442,1.86136 2.458102,1.91801 0.54033,0.34042 0.76999,0.24929 0.30953,0.83744 z" />
      <path
         d="m 95.075759,136.54559 c -0.414581,0 -0.887934,0.003 -1.296556,0.12514 -0.352629,0.10486 -0.877245,0.30649 -1.226459,0.82439 -0.390976,0.57987 -0.383279,1.39444 -0.345863,2.46856 v 0.83946 c 0,0.61737 0.220763,1.16258 0.662182,1.49817 5.93e-4,2.6e-4 0.0018,-2.7e-4 0.0024,0 0.439729,0.33587 1.044405,0.46694 1.796524,0.46695 0.741356,0 1.389989,-0.0649 1.893277,-0.2694 0.61607,-0.25033 1.285074,-0.77636 2.151658,-1.61056 0.433863,-0.46951 0.716356,-0.79675 1.083942,-1.22414 1.012276,-1.32612 1.986986,-1.6904 2.619186,-1.6905 0.63219,-1.1e-4 0.85467,0.0416 0.98024,0.0834 0.1222,0.0407 0.16973,0.0843 0.20392,0.13904 l 0.002,0.002 0.002,0.002 c 0.0332,0.0518 0.0689,0.15637 0.0689,0.33544 v 0.31516 h -0.70334 c -0.60892,0 -1.1099,0.0538 -1.51786,0.17786 -0.41022,0.12466 -0.75267,0.34149 -0.97271,0.65986 -0.21826,0.31579 -0.31053,0.70999 -0.31053,1.15231 0,0.58245 0.19945,1.1035 0.59962,1.45529 l 0.002,0.002 c 0.40185,0.34892 0.95161,0.50162 1.59318,0.50171 h 5.9e-4 c 0.41458,0 0.88794,-0.003 1.29656,-0.12514 0.35262,-0.10486 0.87724,-0.3065 1.22646,-0.8244 0.39097,-0.57989 0.38328,-1.39445 0.34586,-2.46857 v -0.83943 c 0,-0.61737 -0.22076,-1.16257 -0.66218,-1.49817 -5.9e-4,-2.5e-4 -0.002,2.7e-4 -0.003,0 -0.43973,-0.33586 -1.04441,-0.46695 -1.79653,-0.46695 -0.74135,0 -1.38999,0.0649 -1.89327,0.2694 -0.61609,0.25033 -1.285092,0.77636 -2.151676,1.61055 -0.408203,0.45404 -0.710943,0.79609 -1.083364,1.22414 -1.01228,1.32613 -1.987569,1.6904 -2.619764,1.69051 -0.632224,1.1e-4 -0.854705,-0.0416 -0.980272,-0.0834 -0.122202,-0.0407 -0.169726,-0.0843 -0.203927,-0.13904 l -0.0018,-0.002 -0.0018,-0.002 c -0.03322,-0.0518 -0.06894,-0.15644 -0.06894,-0.33551 v -0.31516 h 0.70332 c 0.608914,0 1.1099,-0.0538 1.517861,-0.17785 0.410212,-0.12466 0.752661,-0.34149 0.972709,-0.65987 0.21826,-0.31579 0.310527,-0.70999 0.310527,-1.1523 0,-0.58245 -0.199455,-1.10351 -0.599617,-1.4553 l -0.0024,-0.002 c -0.401845,-0.34888 -0.951602,-0.50158 -1.593168,-0.50167 z m -0.191182,1.39678 c 0.323324,0 0.520764,0.0704 0.638433,0.16453 0.116378,0.0962 0.166266,0.19571 0.166266,0.41423 0,0.18893 -0.03837,0.29332 -0.084,0.35513 -0.04496,0.0609 -0.130113,0.12599 -0.304731,0.17554 h -0.0018 c -0.179589,0.0529 -0.459516,0.0881 -0.822631,0.0881 h -0.712587 v -0.51561 c 0,-0.24318 0.05873,-0.35642 0.230578,-0.47853 0.166788,-0.11785 0.456402,-0.20335 0.890442,-0.20335 z m 8.079443,2.2629 h 0.71258 v 0.51561 c 0,0.24318 -0.0587,0.35642 -0.23057,0.47853 -0.16679,0.11785 -0.4564,0.20335 -0.89044,0.20335 -0.32333,0 -0.52076,-0.0704 -0.63843,-0.16454 -0.11638,-0.0962 -0.16627,-0.1957 -0.16627,-0.41422 0,-0.18893 0.0384,-0.29331 0.084,-0.35514 0.045,-0.0609 0.13011,-0.12599 0.30473,-0.17554 h 0.002 c 0.17962,-0.0529 0.45954,-0.0881 0.82266,-0.0881 z"
         style="color:#000000;font-style:normal;font-variant:normal;font-weight:normal;font-stretch:normal;font-size:medium;line-height:1.25;font-family:Metrophobic;-inkscape-font-specification:Metrophobic;font-variant-ligatures:normal;font-variant-position:normal;font-variant-caps:normal;font-variant-numeric:normal;font-variant-alternates:normal;font-variant-east-asian:normal;font-feature-settings:normal;font-variation-settings:normal;text-indent:0;text-align:start;text-decoration:none;text-decoration-line:none;text-decoration-style:solid;text-decoration-color:#000000;letter-spacing:0px;word-spacing:0px;text-transform:none;writing-mode:lr-tb;direction:ltr;text-orientation:mixed;dominant-baseline:auto;baseline-shift:baseline;text-anchor:start;white-space:normal;shape-padding:0;shape-margin:0;inline-size:0;clip-rule:nonzero;display:inline;overflow:visible;visibility:visible;isolation:auto;mix-blend-mode:normal;color-interpolation:sRGB;color-interpolation-filters:linearRGB;solid-color:#000000;solid-opacity:1;vector-effect:none;fill:#ffffff;fill-opacity:1;fill-rule:nonzero;stroke:none;stroke-width:0.797154;stroke-linecap:butt;stroke-linejoin:miter;stroke-miterlimit:4;stroke-dasharray:none;stroke-dashoffset:0;stroke-opacity:1;color-rendering:auto;image-rendering:auto;shape-rendering:auto;text-rendering:auto;enable-background:accumulate;stop-color:#000000"
         id="path1254-8-4-2-6-6-1-2-3-4-81" />
    </g>
  </g>
</svg>
