<svg width="247" height="54" viewBox="0 0 247 54" fill="none" xmlns="http://www.w3.org/2000/svg">
<path d="M78.9414 38H66.8125V16.584H78.9414V19.543H70.3281V25.3584H78.3994V28.3027H70.3281V35.0264H78.9414V38ZM99.376 38H95.377L89.9863 29.2256L84.5664 38H80.8018L87.9209 26.8965L81.2852 16.584H85.167L90.1475 24.6992L95.0986 16.584H98.8633L92.1982 26.999L99.376 38ZM115.533 38L113.438 32.0527H105.25L103.155 38H99.4492L107.418 16.4961H111.314L119.269 38H115.533ZM112.53 29.0352L110.494 23.1758C110.416 22.9219 110.304 22.5654 110.157 22.1064C110.011 21.6377 109.864 21.1641 109.718 20.6855C109.571 20.1973 109.449 19.7871 109.352 19.4551C109.254 19.8555 109.132 20.3047 108.985 20.8027C108.849 21.291 108.712 21.75 108.575 22.1797C108.448 22.6094 108.351 22.9414 108.282 23.1758L106.231 29.0352H112.53ZM139.132 38L132.965 20.1143H132.833C132.862 20.5146 132.896 21.0615 132.936 21.7549C132.975 22.4482 133.009 23.1904 133.038 23.9814C133.067 24.7725 133.082 25.5293 133.082 26.252V38H129.889V16.584H134.825L140.758 33.6787H140.846L146.983 16.584H151.905V38H148.551V26.0762C148.551 25.4219 148.561 24.7139 148.58 23.9521C148.609 23.1904 148.639 22.4678 148.668 21.7842C148.707 21.1006 148.736 20.5537 148.756 20.1436H148.639L142.237 38H139.132ZM170.816 38L168.722 32.0527H160.533L158.438 38H154.732L162.701 16.4961H166.598L174.552 38H170.816ZM167.813 29.0352L165.777 23.1758C165.699 22.9219 165.587 22.5654 165.44 22.1064C165.294 21.6377 165.147 21.1641 165.001 20.6855C164.854 20.1973 164.732 19.7871 164.635 19.4551C164.537 19.8555 164.415 20.3047 164.269 20.8027C164.132 21.291 163.995 21.75 163.858 22.1797C163.731 22.6094 163.634 22.9414 163.565 23.1758L161.515 29.0352H167.813ZM183.399 16.584C185.245 16.584 186.769 16.8086 187.97 17.2578C189.181 17.707 190.079 18.3906 190.665 19.3086C191.261 20.2266 191.559 21.3936 191.559 22.8096C191.559 23.8643 191.363 24.7627 190.973 25.5049C190.582 26.2471 190.069 26.8623 189.435 27.3506C188.8 27.8389 188.121 28.2295 187.398 28.5225L193.478 38H189.508L184.337 29.416H180.895V38H177.379V16.584H183.399ZM183.165 19.5137H180.895V26.5156H183.326C184.957 26.5156 186.139 26.2129 186.871 25.6074C187.613 25.002 187.984 24.1084 187.984 22.9268C187.984 21.6865 187.589 20.8076 186.798 20.29C186.017 19.7725 184.806 19.5137 183.165 19.5137ZM212.872 38H208.829L202.164 28.2734L200.055 29.9873V38H196.539V16.584H200.055V26.8232C200.484 26.2959 200.919 25.7686 201.358 25.2412C201.798 24.7139 202.237 24.1865 202.677 23.6592L208.712 16.584H212.682L204.684 25.959L212.872 38ZM227.828 38H215.699V16.584H227.828V19.543H219.215V25.3584H227.286V28.3027H219.215V35.0264H227.828V38ZM239.884 38H236.354V19.5723H230.084V16.584H246.139V19.5723H239.884V38Z" fill="black"/>
<path d="M38.8211 0H15.054C6.7399 0 0 6.7399 0 15.054V38.8434C0 47.1575 6.7399 53.8974 15.054 53.8974H38.8211C47.1352 53.8974 53.875 47.1575 53.875 38.8434V15.054C53.875 6.7399 47.1352 0 38.8211 0Z" fill="url(#paint0_linear_5615_15655)"/>
<path d="M39.9376 37.1635C39.0651 37.0853 38.9237 37.4763 37.6386 37.4541C35.9816 37.4271 33.7816 37.2147 32.2562 36.4291C30.7308 35.6436 29.255 34.0361 26.5967 30.9738C26.0578 28.8322 24.5138 27.8939 23.3261 26.5366C20.3268 21.7785 17.1638 20.2615 15.041 20.0706C13.5034 18.7271 12.5389 18.9436 14.0915 17.0845C15.0953 17.1745 13.9941 16.387 15.2107 16.4317C16.5517 16.4809 19.2025 16.2955 21.176 17.3494C23.1495 18.4032 24.6243 19.7435 27.2826 22.8058C28.02 24.6796 29.0732 25.9226 30.5513 27.2428C33.5505 32.0009 36.7155 33.5181 38.8383 33.709C40.6599 34.8567 41.4342 34.5495 39.8818 36.5323L39.9376 37.1635Z" fill="white" fill-opacity="0.496124"/>
<path d="M14.652 16.4064C13.2543 16.4064 11.6585 16.4165 10.2809 16.8283C9.09207 17.1818 7.32341 17.8616 6.14611 19.6076C4.82801 21.5625 4.85395 24.3087 4.9801 27.9298V30.7599C4.9801 32.8413 5.72437 34.6793 7.21253 35.8107C7.21453 35.8116 7.21858 35.8098 7.2206 35.8107C8.70306 36.943 10.7416 37.3849 13.2772 37.385C15.7766 37.385 17.9633 37.1661 19.6601 36.4767C21.737 35.6328 23.9924 33.8594 26.914 31.047C28.3766 29.4642 29.329 28.3609 30.5683 26.92C33.981 22.4493 37.267 21.2212 39.3984 21.2209C41.5297 21.2205 42.2797 21.3611 42.7031 21.502C43.115 21.6392 43.2753 21.7863 43.3905 21.9708L43.3973 21.9775L43.404 21.9843C43.5159 22.1589 43.6363 22.5114 43.6363 23.1151V24.1776H41.2651C39.2123 24.1776 37.5233 24.359 36.1479 24.7773C34.765 25.1975 33.6105 25.9285 32.8686 27.0018C32.1328 28.0665 31.8217 29.3954 31.8217 30.8866C31.8217 32.8503 32.4941 34.6069 33.8432 35.7929L33.85 35.7996C35.2047 36.9759 37.0582 37.4907 39.2211 37.491H39.2231C40.6208 37.491 42.2166 37.4809 43.5942 37.0692C44.783 36.7156 46.5516 36.0358 47.7289 34.2898C49.047 32.3349 49.0211 29.5887 48.895 25.9675V23.1376C48.895 21.0562 48.1507 19.2182 46.6625 18.0868C46.6606 18.0859 46.6558 18.0877 46.6524 18.0868C45.1699 16.9545 43.1314 16.5125 40.5958 16.5125C38.0965 16.5125 35.9097 16.7313 34.213 17.4207C32.1359 18.2647 29.8805 20.0381 26.959 22.8504C25.5828 24.3811 24.5622 25.5343 23.3067 26.9774C19.894 31.4482 16.606 32.6762 14.4746 32.6766C12.3432 32.677 11.5932 32.5364 11.1698 32.3954C10.7579 32.2582 10.5976 32.1112 10.4823 31.9267L10.4763 31.92L10.4702 31.9132C10.3582 31.7386 10.2378 31.3858 10.2378 30.7821V29.7196H12.6089C14.6617 29.7196 16.3507 29.5382 17.7261 29.12C19.109 28.6997 20.2635 27.9688 21.0054 26.8954C21.7412 25.8308 22.0523 24.5018 22.0523 23.0107C22.0523 21.047 21.3798 19.2904 20.0308 18.1044L20.0227 18.0976C18.6679 16.9214 16.8145 16.4066 14.6516 16.4063L14.652 16.4064ZM14.0074 21.1154C15.0975 21.1154 15.7631 21.3527 16.1598 21.6701C16.5521 21.9944 16.7203 22.3299 16.7203 23.0666C16.7203 23.7035 16.591 24.0554 16.4371 24.2638C16.2856 24.4691 15.9985 24.6886 15.4098 24.8556H15.4037C14.7983 25.034 13.8546 25.1526 12.6304 25.1526H10.228V23.4143C10.228 22.5945 10.426 22.2128 11.0054 21.8011C11.5677 21.4038 12.544 21.1155 14.0073 21.1155L14.0074 21.1154ZM41.2457 28.7443H43.648V30.4826C43.648 31.3024 43.4502 31.6842 42.8707 32.0959C42.3084 32.4932 41.3321 32.7814 39.8688 32.7814C38.7787 32.7814 38.1131 32.5441 37.7164 32.2267C37.3241 31.9024 37.1559 31.567 37.1559 30.8303C37.1559 30.1933 37.2854 29.8414 37.4391 29.6329C37.5908 29.4276 37.8777 29.2082 38.4664 29.0412H38.4731C39.0787 28.8628 40.0224 28.7441 41.2466 28.7441L41.2457 28.7443Z" fill="white"/>
<defs>
<linearGradient id="paint0_linear_5615_15655" x1="2.69599e-05" y1="1.9971e-05" x2="66.8217" y2="70.224" gradientUnits="userSpaceOnUse">
<stop stop-color="#001486"/>
<stop offset="1" stop-color="#7E00E6"/>
</linearGradient>
</defs>
</svg>
