<?xml version="1.0" encoding="UTF-8"?>
<svg width="51.59mm" height="14.261mm" version="1.1" viewBox="0 0 51.59 14.261" xmlns="http://www.w3.org/2000/svg" xmlns:cc="http://creativecommons.org/ns#" xmlns:dc="http://purl.org/dc/elements/1.1/" xmlns:rdf="http://www.w3.org/1999/02/22-rdf-syntax-ns#">
 <metadata>
  <rdf:RDF>
   <cc:Work rdf:about="">
    <dc:format>image/svg+xml</dc:format>
    <dc:type rdf:resource="http://purl.org/dc/dcmitype/StillImage"/>
    <dc:title/>
   </cc:Work>
  </rdf:RDF>
 </metadata>
 <g transform="translate(-67.187 -156.91)">
  <g transform="translate(-33.222 -114.37)" fill="#fff">
   <g transform="translate(-59.04 34.603)">
    <path transform="matrix(.26458 0 0 .26458 45.512 -94.563)" d="m446.15 1268.4c1.7875 0.1251 3.3284 0.6463 4.4961 1.6601l8e-3 0.01c1.3491 1.1861 2.0215 2.9427 2.0215 4.9063 0 0.5405-0.0574 1.0499-0.14453 1.543 0.47424 0.5948 0.94865 1.2367 1.4199 1.9843 0.0613 0.07 0.13031 0.1312 0.19336 0.1992 1.1581-1.3288 2.1438-2.4436 3.4395-3.8847 0.07-0.067 0.12993-0.1174 0.19922-0.1836-1.2634-1.4494-2.2708-2.5237-3.1856-3.3438-0.94767-0.8496-1.8082-1.4477-2.7949-1.9746s-2.1437-0.7444-3.2207-0.8359c-0.9383-0.08-1.7775-0.067-2.4316-0.078zm14.883 10.668c-1.1586 1.3465-2.0988 2.4315-3.4941 3.9414-0.0494 0.048-0.0917 0.082-0.14063 0.129 1.2367 1.4222 2.2299 2.5413 3.0781 3.3808 0.89191 0.8829 1.6436 1.4823 2.4062 1.875 0.76269 0.3928 1.6928 0.6422 2.6406 0.7969s1.9118 0.215 2.7402 0.2285c0.16991 0 0.27786-0.016 0.41211-0.025-1.6601-0.1606-3.0972-0.672-4.1992-1.6289l-8e-3 -0.01c-1.3491-1.186-2.0215-2.9426-2.0215-4.9063 0-0.5778 0.064-1.1232 0.16406-1.6464-0.47856-0.5991-0.95858-1.2445-1.4336-1.9981-0.0519-0.046-0.0937-0.092-0.14453-0.1387z" fill-opacity=".5"/>
    <path transform="matrix(.26458 0 0 .26458 45.512 -94.563)" d="m445.68 1251.9c-8.3399 0-15.055 6.7148-15.055 15.055v23.789c0 8.3399 6.7148 15.055 15.055 15.055h23.768c8.3399 0 15.053-6.7148 15.053-15.055v-23.789c0-8.3399-6.7128-15.055-15.053-15.055zm-0.40234 16.406c0.28351 0 0.56153 0.011 0.83398 0.029 0.65774 0.012 1.5152 0 2.4707 0.078 1.077 0.091 2.234 0.309 3.2207 0.8359s1.8472 1.125 2.7949 1.9746c0.91474 0.8201 1.9221 1.8944 3.1856 3.3438 2.8206-2.6963 5.0274-4.4224 7.0547-5.2461 1.6967-0.6894 3.8835-0.9082 6.3828-0.9082 2.5356 0 4.5742 0.4419 6.0566 1.5742 3e-3 9e-4 0.01-8e-4 0.0117 0 1.4882 1.1314 2.2324 2.9694 2.2324 5.0508v2.8301c0.12615 3.6212 0.15206 6.3673-1.166 8.3222-1.1773 1.746-2.946 2.4258-4.1348 2.7793-1.3776 0.4118-2.9734 0.4219-4.3711 0.4219h-2e-3c-0.4035 0-0.7931-0.026-1.1738-0.062-0.13376 0.01-0.24105 0.028-0.41016 0.025-0.82848-0.014-1.7924-0.074-2.7402-0.2285-0.94781-0.1547-1.8779-0.4041-2.6406-0.7969-0.76269-0.3927-1.5143-0.9921-2.4062-1.875-0.84773-0.8391-1.8404-1.9577-3.0762-3.3789-2.8507 2.731-5.0731 4.471-7.1152 5.3008-1.6967 0.6894-3.8835 0.9082-6.3828 0.9082-2.5356 0-4.5742-0.4419-6.0566-1.5742-2e-3 -9e-4 -6e-3 8e-4 -8e-3 0-1.4882-1.1314-2.2324-2.9695-2.2324-5.0508v-2.8301c-0.12614-3.6212-0.15208-6.3673 1.166-8.3223 1.1773-1.746 2.9459-2.4257 4.1348-2.7793 1.3776-0.4117 2.9734-0.4218 4.3711-0.4218zm-0.64453 4.709c-1.4633 0-2.4397 0.2882-3.002 0.6855-0.57935 0.4117-0.77734 0.7934-0.77734 1.6133v1.7383h2.4023c1.2242 0 2.168-0.1186 2.7734-0.2969h6e-3c0.58869-0.1671 0.87577-0.3865 1.0273-0.5918 0.15384-0.2084 0.28321-0.5603 0.28321-1.1973 0-0.7367-0.1682-1.0721-0.56055-1.3965-0.3967-0.3173-1.0623-0.5546-2.1523-0.5546zm25.391 0.1054c-2.1313 4e-4 -5.4174 1.2285-8.8301 5.6992-0.0568 0.066-0.10452 0.119-0.16015 0.1836 0.0508 0.046 0.0927 0.092 0.14453 0.1387 0.47533 0.7541 0.95471 1.4007 1.4336 2 0.15812-0.8269 0.43214-1.5882 0.88281-2.2402 0.74183-1.0733 1.8963-1.8044 3.2793-2.2246 1.3754-0.4183 3.0643-0.5996 5.1172-0.5996h2.3711v-1.0625c0-0.6037-0.12049-0.9563-0.23242-1.1309l-6e-3 -0.01-8e-3 -0.01c-0.11527-0.1845-0.27553-0.3315-0.6875-0.4687-0.42334-0.1409-1.1734-0.2816-3.3047-0.2813zm-17.49 3.334c-0.15329 0.8671-0.43325 1.6631-0.90235 2.3418-0.74185 1.0734-1.8963 1.8043-3.2793 2.2246-1.3754 0.4182-3.0644 0.5996-5.1172 0.5996h-2.3711v1.0625c0 0.6037 0.12043 0.9563 0.23243 1.1309l0.012 0.02c0.1153 0.1845 0.27551 0.3315 0.6875 0.4687 0.42332 0.1409 1.1733 0.2816 3.3047 0.2813 2.1313-4e-4 5.4193-1.2285 8.832-5.6993 0.0735-0.084 0.14092-0.1596 0.21289-0.2422-0.063-0.068-0.13202-0.1291-0.19336-0.1992-0.47069-0.7467-0.94432-1.3881-1.418-1.9824zm19.338 4.1895c-1.2231 1e-4 -2.1663 0.1186-2.7715 0.2968h-8e-3c-0.5887 0.1671-0.87563 0.3865-1.0273 0.5918-0.15374 0.2085-0.28321 0.5604-0.28321 1.1973 0 0.7367 0.1682 1.0722 0.56055 1.3965 0.3967 0.3174 1.0623 0.5547 2.1523 0.5547 1.4633 0 2.4397-0.2883 3.002-0.6856 0.57942-0.4116 0.77734-0.7934 0.77734-1.6133v-1.7382h-2.4002z"/>
   </g>
   <g stroke-width="0" aria-label=".finance">
    <path d="m116.11 280.09h1.1627v1.0955h-1.1627z"/>
    <path d="m122.78 281.08h-0.79582v-4.594h-1.9534v4.594h-0.79065v-4.594h-0.94051v-0.63046h0.94051v-0.64078q0-0.44958 0.0568-0.72347 0.0568-0.27905 0.15502-0.42891 0.10336-0.14986 0.25839-0.24805 0.17053-0.10852 0.41341-0.16019 0.24804-0.0568 0.65628-0.0568 0.20671 0 0.33073 0.0155 0.12919 0.0155 0.29456 0.0414v0.64078q-0.0465-5e-3 -0.20154-0.0207-0.14986-0.0207-0.42375-0.0207-0.40307 0-0.54776 0.10852-0.10852 0.0827-0.15503 0.20154-0.0413 0.11369-0.0413 0.33589v0.95601h2.744zm-0.40308-6.1236q-0.26355 0-0.37207-0.0982-0.10335-0.0982-0.10335-0.34623 0-0.26355 0.10335-0.38757t0.37207-0.12402q0.29456 0 0.39791 0.12919 0.0879 0.11369 0.0879 0.3824 0 0.17053-0.0413 0.26872-0.0413 0.093-0.1447 0.13436-0.10335 0.0413-0.29972 0.0413z"/>
    <path d="m124.52 275.86h0.65112l0.062 0.73898q0.25838-0.47543 0.68213-0.6718 0.42374-0.20153 1.1575-0.20153 0.6718 0 1.0749 0.21704 0.40824 0.21704 0.59428 0.69246 0.18603 0.47542 0.18603 1.2609v3.1884h-0.79581v-3.1884q0-0.54777-0.12919-0.87333-0.12919-0.33073-0.41341-0.48059-0.27906-0.14986-0.74931-0.14986-0.55294 0-0.88883 0.15503-0.33073 0.15503-0.48576 0.49092-0.14986 0.3359-0.14986 0.89917v3.1471h-0.79581z"/>
    <path d="m134.71 281.21q-0.37723 0-0.60978-0.20154-0.22737-0.20154-0.22737-0.53226-0.25838 0.35139-0.72864 0.5426-0.46508 0.18603-1.0749 0.18603-0.87333 0-1.3436-0.40824-0.47025-0.41341-0.47025-1.1679 0-0.58394 0.24288-0.93534 0.24288-0.35139 0.76997-0.51159 0.5271-0.1602 1.4056-0.1602h1.0852v-0.69763q0-0.34106-0.12919-0.5426-0.12919-0.2067-0.40824-0.29972-0.27905-0.093-0.74414-0.093-0.48059 0-0.76998 0.0879-0.28938 0.0879-0.42374 0.28422-0.13436 0.1912-0.13436 0.5116h-0.7183q0-0.78031 0.50126-1.1524t1.5451-0.37207q1.0594 0 1.5658 0.38757 0.51159 0.38757 0.51159 1.1937v2.6665q0 0.31522 0.0775 0.42891 0.0827 0.11369 0.31006 0.11369 0.0827 0 0.12919-5e-3v0.63045q-0.093 0.031-0.16537 0.0362-0.0672 0.0103-0.19637 0.0103zm-2.4494-0.63562q0.72347 0 1.111-0.27388 0.39274-0.27906 0.39274-0.79065v-0.89917h-1.0955q-0.57877 0-0.93017 0.10335-0.34623 0.0982-0.50643 0.31523-0.1602 0.21704-0.1602 0.58394 0 0.45992 0.31006 0.71313 0.31006 0.24805 0.8785 0.24805z"/>
    <path d="m136.32 275.86h0.65113l0.062 0.73898q0.25838-0.47543 0.68212-0.6718 0.42375-0.20153 1.1576-0.20153 0.67179 0 1.0749 0.21704 0.40824 0.21704 0.59428 0.69246 0.18603 0.47542 0.18603 1.2609v3.1884h-0.79581v-3.1884q0-0.54777-0.1292-0.87333-0.12919-0.33073-0.41341-0.48059-0.27905-0.14986-0.7493-0.14986-0.55294 0-0.88883 0.15503-0.33073 0.15503-0.48576 0.49092-0.14986 0.3359-0.14986 0.89917v3.1471h-0.79582z"/>
    <path d="m144.54 281.2q-0.87849 0-1.4056-0.27388-0.52193-0.27906-0.76481-0.8785-0.23771-0.59944-0.23771-1.5968 0-0.98701 0.24288-1.5813t0.76481-0.86299q0.52709-0.27389 1.4056-0.27389 1.0232 0 1.5193 0.42375 0.50126 0.41858 0.51677 1.2971h-0.81132q-0.031-0.39274-0.16537-0.62528-0.12919-0.23254-0.39274-0.34106-0.26354-0.10852-0.68729-0.10852-0.61495 0-0.95601 0.1912-0.3359 0.1912-0.48576 0.64078-0.14469 0.44442-0.14469 1.2506 0 0.87333 0.13436 1.3177 0.13436 0.44442 0.47542 0.62529 0.34106 0.1757 1.0025 0.1757 0.43408 0 0.69763-0.10852 0.26355-0.11369 0.38757-0.3514 0.12402-0.24288 0.13436-0.64079h0.81132q-5e-3 0.62528-0.21188 1.0025-0.2067 0.37207-0.65112 0.54777-0.44441 0.17053-1.1782 0.17053z"/>
    <path d="m149.81 281.2q-0.85266 0-1.3642-0.27388-0.5116-0.27389-0.74931-0.86816-0.23254-0.59428-0.23254-1.5865 0-0.93017 0.23254-1.5296 0.23254-0.60462 0.74414-0.90434 0.51159-0.29972 1.3488-0.29972 0.80098 0 1.2816 0.23771 0.48576 0.23771 0.70797 0.75447 0.2222 0.5116 0.2222 1.3694l-5e-3 0.50126h-3.7259q0 0.7183 0.15503 1.1524 0.16019 0.42891 0.49609 0.63045 0.34106 0.19637 0.9095 0.19637 0.45992 0 0.73897-0.093 0.28422-0.093 0.41858-0.29456 0.13953-0.2067 0.15503-0.54776h0.81132q0 0.79581-0.5271 1.1782-0.52193 0.37724-1.6175 0.37724zm1.3798-3.1884q0.0155-0.59428-0.12403-0.95085-0.13952-0.35656-0.45475-0.52193-0.31522-0.16536-0.84232-0.16536-0.55294 0-0.86816 0.14986-0.31006 0.14986-0.45475 0.50126-0.1447 0.3514-0.16537 0.98702z"/>
   </g>
  </g>
 </g>
</svg>
