<svg width="54" height="54" viewBox="0 0 54 54" fill="none" xmlns="http://www.w3.org/2000/svg">
<path d="M15.5541 16.5309C17.345 16.6563 18.8888 17.1784 20.0587 18.1941L20.0667 18.2041C21.4183 19.3924 22.092 21.1524 22.092 23.1197C22.092 23.6612 22.0345 24.1715 21.9472 24.6656C22.4223 25.2615 22.8976 25.9045 23.3697 26.6535C23.4311 26.7237 23.5003 26.785 23.5635 26.8531C24.7237 25.5218 25.7113 24.405 27.0094 22.9612C27.0795 22.8941 27.1396 22.8436 27.209 22.7773C25.9432 21.3251 24.9339 20.2488 24.0174 19.4271C23.068 18.5759 22.2058 17.9767 21.2173 17.4488C20.2287 16.9209 19.0696 16.7031 17.9906 16.6114C17.0505 16.5313 16.2097 16.5443 15.5544 16.5333L15.5541 16.5309ZM30.465 27.2189C29.3043 28.5679 28.3623 29.655 26.9644 31.1677C26.9149 31.2158 26.8725 31.2499 26.8235 31.297C28.0625 32.7219 29.0576 33.843 29.9074 34.6841C30.801 35.5686 31.5541 36.1691 32.3181 36.5626C33.0822 36.9561 34.0141 37.206 34.9636 37.3609C35.9132 37.5159 36.879 37.5764 37.709 37.5899C37.8792 37.5899 37.9874 37.574 38.1219 37.5649C36.4586 37.404 35.0189 36.8917 33.9148 35.933L33.9068 35.923C32.5552 34.7347 31.8815 32.9748 31.8815 31.0074C31.8815 30.4285 31.9456 29.8821 32.0459 29.3579C31.5664 28.7577 31.0855 28.1112 30.6096 27.3561C30.5576 27.3101 30.5157 27.2639 30.4648 27.2171L30.465 27.2189Z" fill="black" fill-opacity="0.5"/>
<path d="M15.0832 0C6.72768 0 0 6.72732 0 15.0832V38.9168C0 47.2724 6.72738 54 15.0832 54H38.8958C47.2513 54 53.977 47.2727 53.977 38.9168V15.0832C53.977 6.72762 47.2516 0 38.8958 0H15.0832ZM14.6801 16.4368C14.9642 16.4368 15.2427 16.4477 15.5157 16.4658C16.1746 16.4778 17.0337 16.4658 17.991 16.5439C19.07 16.6351 20.2292 16.8535 21.2178 17.3814C22.2063 17.9093 23.0684 18.5085 24.0179 19.3597C24.9343 20.1814 25.9436 21.2576 27.2095 22.7097C30.0354 20.0084 32.2463 18.2791 34.2774 17.4538C35.9773 16.7631 38.1682 16.5439 40.6722 16.5439C43.2125 16.5439 45.255 16.9867 46.7401 18.1211C46.7431 18.122 46.7501 18.1203 46.7518 18.1211C48.2428 19.2546 48.9884 21.096 48.9884 23.1813V26.0167C49.1148 29.6447 49.1408 32.396 47.8202 34.3546C46.6407 36.1039 44.8687 36.7849 43.6777 37.1391C42.2975 37.5517 40.6987 37.5618 39.2984 37.5618H39.2964C38.8921 37.5618 38.5018 37.5357 38.1204 37.4996C37.9864 37.5097 37.8789 37.5277 37.7095 37.5247C36.8794 37.5107 35.9137 37.4506 34.9641 37.2958C34.0145 37.1408 33.0827 36.8909 32.3186 36.4974C31.5545 36.104 30.8014 35.5034 29.9078 34.6189C29.0585 33.7782 28.064 32.6575 26.8259 31.2336C23.9698 33.9698 21.7433 35.713 19.6974 36.5444C17.9975 37.235 15.8066 37.4543 13.3026 37.4543C10.7622 37.4543 8.71979 37.0115 7.23461 35.8771C7.23261 35.8762 7.2286 35.8779 7.2266 35.8771C5.73561 34.7436 4.99002 32.902 4.99002 30.8168V27.9815C4.86365 24.3535 4.83764 21.6022 6.15819 19.6436C7.3377 17.8943 9.10964 17.2133 10.3008 16.8591C11.681 16.4466 13.2797 16.4364 14.6801 16.4364L14.6801 16.4368ZM14.0344 21.1546C12.5683 21.1546 11.5901 21.4433 11.0268 21.8413C10.4463 22.2538 10.248 22.6363 10.248 23.4577V25.1993H12.6548C13.8813 25.1993 14.8268 25.0805 15.4334 24.9018H15.4394C16.0292 24.7344 16.3168 24.5146 16.4686 24.3089C16.6228 24.1001 16.7524 23.7475 16.7524 23.1093C16.7524 22.3712 16.5839 22.0352 16.1908 21.7102C15.7933 21.3923 15.1265 21.1546 14.0344 21.1546H14.0344ZM39.473 21.2601C37.3377 21.2605 34.0455 22.491 30.6264 26.97C30.5694 27.0362 30.5216 27.0893 30.4659 27.154C30.5168 27.2001 30.5588 27.2461 30.6107 27.2929C31.0869 28.0484 31.5672 28.6962 32.047 29.2967C32.2054 28.4682 32.4799 27.7056 32.9314 27.0523C33.6747 25.977 34.8313 25.2446 36.2169 24.8236C37.5949 24.4045 39.287 24.2228 41.3437 24.2228H43.7192V23.1583C43.7192 22.5535 43.5985 22.2003 43.4864 22.0254L43.4804 22.0153L43.4724 22.0053C43.3569 21.8205 43.1963 21.6731 42.7836 21.5357C42.3594 21.3945 41.608 21.2536 39.4727 21.2539L39.473 21.2601ZM21.9502 24.6004C21.7966 25.4691 21.5161 26.2666 21.0462 26.9466C20.3029 28.022 19.1463 28.7542 17.7607 29.1753C16.3827 29.5943 14.6906 29.7761 12.6339 29.7761H10.2584V30.8406C10.2584 31.4454 10.379 31.7987 10.4913 31.9737L10.5033 31.9936C10.6188 32.1784 10.7793 32.3258 11.1921 32.4632C11.6162 32.6044 12.3675 32.7453 14.5029 32.745C16.6382 32.7446 19.9324 31.5143 23.3515 27.0351C23.4251 26.9509 23.4927 26.8752 23.5648 26.7925C23.5017 26.7243 23.4325 26.6631 23.3711 26.5929C22.8995 25.8448 22.425 25.2021 21.9504 24.6067L21.9502 24.6004ZM41.3245 28.7978C40.0991 28.7979 39.1541 28.9166 38.5478 29.0951H38.5398C37.95 29.2625 37.6625 29.4823 37.5105 29.688C37.3565 29.8969 37.2268 30.2496 37.2268 30.8876C37.2268 31.6257 37.3953 31.9618 37.7884 32.2868C38.1859 32.6047 38.8527 32.8425 39.9447 32.8425C41.4108 32.8425 42.389 32.5536 42.9524 32.1555C43.5329 31.7432 43.7312 31.3607 43.7312 30.5392V28.7978H41.3265H41.3245Z" fill="black"/>
</svg>
