<svg width="247" height="54" viewBox="0 0 247 54" fill="none" xmlns="http://www.w3.org/2000/svg">
<path d="M78.9414 38H66.8125V16.584H78.9414V19.543H70.3281V25.3584H78.3994V28.3027H70.3281V35.0264H78.9414V38ZM99.376 38H95.377L89.9863 29.2256L84.5664 38H80.8018L87.9209 26.8965L81.2852 16.584H85.167L90.1475 24.6992L95.0986 16.584H98.8633L92.1982 26.999L99.376 38ZM115.533 38L113.438 32.0527H105.25L103.155 38H99.4492L107.418 16.4961H111.314L119.269 38H115.533ZM112.53 29.0352L110.494 23.1758C110.416 22.9219 110.304 22.5654 110.157 22.1064C110.011 21.6377 109.864 21.1641 109.718 20.6855C109.571 20.1973 109.449 19.7871 109.352 19.4551C109.254 19.8555 109.132 20.3047 108.985 20.8027C108.849 21.291 108.712 21.75 108.575 22.1797C108.448 22.6094 108.351 22.9414 108.282 23.1758L106.231 29.0352H112.53ZM139.132 38L132.965 20.1143H132.833C132.862 20.5146 132.896 21.0615 132.936 21.7549C132.975 22.4482 133.009 23.1904 133.038 23.9814C133.067 24.7725 133.082 25.5293 133.082 26.252V38H129.889V16.584H134.825L140.758 33.6787H140.846L146.983 16.584H151.905V38H148.551V26.0762C148.551 25.4219 148.561 24.7139 148.58 23.9521C148.609 23.1904 148.639 22.4678 148.668 21.7842C148.707 21.1006 148.736 20.5537 148.756 20.1436H148.639L142.237 38H139.132ZM170.816 38L168.722 32.0527H160.533L158.438 38H154.732L162.701 16.4961H166.598L174.552 38H170.816ZM167.813 29.0352L165.777 23.1758C165.699 22.9219 165.587 22.5654 165.44 22.1064C165.294 21.6377 165.147 21.1641 165.001 20.6855C164.854 20.1973 164.732 19.7871 164.635 19.4551C164.537 19.8555 164.415 20.3047 164.269 20.8027C164.132 21.291 163.995 21.75 163.858 22.1797C163.731 22.6094 163.634 22.9414 163.565 23.1758L161.515 29.0352H167.813ZM183.399 16.584C185.245 16.584 186.769 16.8086 187.97 17.2578C189.181 17.707 190.079 18.3906 190.665 19.3086C191.261 20.2266 191.559 21.3936 191.559 22.8096C191.559 23.8643 191.363 24.7627 190.973 25.5049C190.582 26.2471 190.069 26.8623 189.435 27.3506C188.8 27.8389 188.121 28.2295 187.398 28.5225L193.478 38H189.508L184.337 29.416H180.895V38H177.379V16.584H183.399ZM183.165 19.5137H180.895V26.5156H183.326C184.957 26.5156 186.139 26.2129 186.871 25.6074C187.613 25.002 187.984 24.1084 187.984 22.9268C187.984 21.6865 187.589 20.8076 186.798 20.29C186.017 19.7725 184.806 19.5137 183.165 19.5137ZM212.872 38H208.829L202.164 28.2734L200.055 29.9873V38H196.539V16.584H200.055V26.8232C200.484 26.2959 200.919 25.7686 201.358 25.2412C201.798 24.7139 202.237 24.1865 202.677 23.6592L208.712 16.584H212.682L204.684 25.959L212.872 38ZM227.828 38H215.699V16.584H227.828V19.543H219.215V25.3584H227.286V28.3027H219.215V35.0264H227.828V38ZM239.884 38H236.354V19.5723H230.084V16.584H246.139V19.5723H239.884V38Z" fill="black"/>
<path d="M15.5541 16.5309C17.345 16.6563 18.8888 17.1784 20.0587 18.1941L20.0667 18.2041C21.4183 19.3924 22.092 21.1524 22.092 23.1197C22.092 23.6612 22.0345 24.1715 21.9472 24.6656C22.4223 25.2615 22.8976 25.9045 23.3697 26.6535C23.4311 26.7237 23.5003 26.785 23.5635 26.8531C24.7237 25.5218 25.7113 24.405 27.0094 22.9612C27.0795 22.8941 27.1396 22.8436 27.209 22.7773C25.9432 21.3251 24.9339 20.2488 24.0174 19.4271C23.068 18.5759 22.2058 17.9767 21.2173 17.4488C20.2287 16.9209 19.0696 16.7031 17.9906 16.6114C17.0505 16.5313 16.2097 16.5443 15.5544 16.5333L15.5541 16.5309ZM30.465 27.2189C29.3043 28.5679 28.3623 29.655 26.9644 31.1677C26.9149 31.2158 26.8725 31.2499 26.8235 31.297C28.0625 32.7219 29.0576 33.843 29.9074 34.6841C30.801 35.5686 31.5541 36.1691 32.3181 36.5626C33.0822 36.9561 34.0141 37.206 34.9636 37.3609C35.9132 37.5159 36.879 37.5764 37.709 37.5899C37.8792 37.5899 37.9874 37.574 38.1219 37.5649C36.4586 37.404 35.0189 36.8917 33.9148 35.933L33.9068 35.923C32.5552 34.7347 31.8815 32.9748 31.8815 31.0074C31.8815 30.4285 31.9456 29.8821 32.0459 29.3579C31.5664 28.7577 31.0855 28.1112 30.6096 27.3561C30.5576 27.3101 30.5157 27.2639 30.4648 27.2171L30.465 27.2189Z" fill="black" fill-opacity="0.5"/>
<path d="M15.0832 0C6.72768 0 0 6.72732 0 15.0832V38.9168C0 47.2724 6.72738 54 15.0832 54H38.8958C47.2513 54 53.977 47.2727 53.977 38.9168V15.0832C53.977 6.72762 47.2516 0 38.8958 0H15.0832ZM14.6801 16.4368C14.9642 16.4368 15.2427 16.4477 15.5157 16.4658C16.1746 16.4778 17.0337 16.4658 17.991 16.5439C19.07 16.6351 20.2292 16.8535 21.2178 17.3814C22.2063 17.9093 23.0684 18.5085 24.0179 19.3597C24.9343 20.1814 25.9436 21.2576 27.2095 22.7097C30.0354 20.0084 32.2463 18.2791 34.2774 17.4538C35.9773 16.7631 38.1682 16.5439 40.6722 16.5439C43.2125 16.5439 45.255 16.9867 46.7401 18.1211C46.7431 18.122 46.7501 18.1203 46.7518 18.1211C48.2428 19.2546 48.9884 21.096 48.9884 23.1813V26.0167C49.1148 29.6447 49.1408 32.396 47.8202 34.3546C46.6407 36.1039 44.8687 36.7849 43.6777 37.1391C42.2975 37.5517 40.6987 37.5618 39.2984 37.5618H39.2964C38.8921 37.5618 38.5018 37.5357 38.1204 37.4996C37.9864 37.5097 37.8789 37.5277 37.7095 37.5247C36.8794 37.5107 35.9137 37.4506 34.9641 37.2958C34.0145 37.1408 33.0827 36.8909 32.3186 36.4974C31.5545 36.104 30.8014 35.5034 29.9078 34.6189C29.0585 33.7782 28.064 32.6575 26.8259 31.2336C23.9698 33.9698 21.7433 35.713 19.6974 36.5444C17.9975 37.235 15.8066 37.4543 13.3026 37.4543C10.7622 37.4543 8.71979 37.0115 7.23461 35.8771C7.23261 35.8762 7.2286 35.8779 7.2266 35.8771C5.73561 34.7436 4.99002 32.902 4.99002 30.8168V27.9815C4.86365 24.3535 4.83764 21.6022 6.15819 19.6436C7.3377 17.8943 9.10964 17.2133 10.3008 16.8591C11.681 16.4466 13.2797 16.4364 14.6801 16.4364L14.6801 16.4368ZM14.0344 21.1546C12.5683 21.1546 11.5901 21.4433 11.0268 21.8413C10.4463 22.2538 10.248 22.6363 10.248 23.4577V25.1993H12.6548C13.8813 25.1993 14.8268 25.0805 15.4334 24.9018H15.4394C16.0292 24.7344 16.3168 24.5146 16.4686 24.3089C16.6228 24.1001 16.7524 23.7475 16.7524 23.1093C16.7524 22.3712 16.5839 22.0352 16.1908 21.7102C15.7933 21.3923 15.1265 21.1546 14.0344 21.1546H14.0344ZM39.473 21.2601C37.3377 21.2605 34.0455 22.491 30.6264 26.97C30.5694 27.0362 30.5216 27.0893 30.4659 27.154C30.5168 27.2001 30.5588 27.2461 30.6107 27.2929C31.0869 28.0484 31.5672 28.6962 32.047 29.2967C32.2054 28.4682 32.4799 27.7056 32.9314 27.0523C33.6747 25.977 34.8313 25.2446 36.2169 24.8236C37.5949 24.4045 39.287 24.2228 41.3437 24.2228H43.7192V23.1583C43.7192 22.5535 43.5985 22.2003 43.4864 22.0254L43.4804 22.0153L43.4724 22.0053C43.3569 21.8205 43.1963 21.6731 42.7836 21.5357C42.3594 21.3945 41.608 21.2536 39.4727 21.2539L39.473 21.2601ZM21.9502 24.6004C21.7966 25.4691 21.5161 26.2666 21.0462 26.9466C20.3029 28.022 19.1463 28.7542 17.7607 29.1753C16.3827 29.5943 14.6906 29.7761 12.6339 29.7761H10.2584V30.8406C10.2584 31.4454 10.379 31.7987 10.4913 31.9737L10.5033 31.9936C10.6188 32.1784 10.7793 32.3258 11.1921 32.4632C11.6162 32.6044 12.3675 32.7453 14.5029 32.745C16.6382 32.7446 19.9324 31.5143 23.3515 27.0351C23.4251 26.9509 23.4927 26.8752 23.5648 26.7925C23.5017 26.7243 23.4325 26.6631 23.3711 26.5929C22.8995 25.8448 22.425 25.2021 21.9504 24.6067L21.9502 24.6004ZM41.3245 28.7978C40.0991 28.7979 39.1541 28.9166 38.5478 29.0951H38.5398C37.95 29.2625 37.6625 29.4823 37.5105 29.688C37.3565 29.8969 37.2268 30.2496 37.2268 30.8876C37.2268 31.6257 37.3953 31.9618 37.7884 32.2868C38.1859 32.6047 38.8527 32.8425 39.9447 32.8425C41.4108 32.8425 42.389 32.5536 42.9524 32.1555C43.5329 31.7432 43.7312 31.3607 43.7312 30.5392V28.7978H41.3265H41.3245Z" fill="black"/>
</svg>
